<svg width="24.000000" height="24.000000" viewBox="0 0 24 24" fill="none" xmlns="http://www.w3.org/2000/svg" xmlns:xlink="http://www.w3.org/1999/xlink">
	<desc>
			Created with Pixso.
	</desc>
	<defs>
		<clipPath id="clip4_4">
			<rect id="Электронная коммерция WeChat" width="24.000000" height="24.000000" fill="white" fill-opacity="0"/>
		</clipPath>
	</defs>
	<g clip-path="url(#clip4_4)">
		<path id="path" d="M19 7L5 7C4.44 7 4 7.44 4 8L4 21C4 21.55 4.44 22 5 22L19 22C19.55 22 20 21.55 20 21L20 8C20 7.44 19.55 7 19 7Z" fill="#000000" fill-opacity="0" fill-rule="nonzero"/>
		<path id="path" d="M5 7C4.44 7 4 7.44 4 8L4 21C4 21.55 4.44 22 5 22L19 22C19.55 22 20 21.55 20 21L20 8C20 7.44 19.55 7 19 7L5 7Z" stroke="#35241D" stroke-opacity="1.000000" stroke-width="1.000000" stroke-linejoin="round"/>
		<path id="path" d="M8.97 8.97L9 9C9 9.28 8.78 9.5 8.5 9.5C8.21 9.5 8 9.28 8 9L8.02 8.97L8.97 8.97ZM15.98 8.97L16 9C16 9.28 15.78 9.5 15.5 9.5C15.22 9.5 15 9.28 15 9L15.02 8.97L15.98 8.97Z" fill="#000000" fill-opacity="0" fill-rule="nonzero"/>
		<path id="path" d="M8.5 9L8.5 5.5C8.5 3.56 10.06 2 12 2C13.93 2 15.5 3.56 15.5 5.5L15.5 9" stroke="#35241D" stroke-opacity="1.000000" stroke-width="1.000000" stroke-linejoin="round" stroke-linecap="round"/>
	</g>
</svg>
