<svg width="24.000000" height="24.000000" viewBox="0 0 24 24" fill="none" xmlns="http://www.w3.org/2000/svg" xmlns:xlink="http://www.w3.org/1999/xlink">
	<desc>
			Created with Pixso.
	</desc>
	<defs>
		<clipPath id="clip3_499">
			<rect id="instagram" width="24.000000" height="24.000000" fill="white" fill-opacity="0"/>
		</clipPath>
	</defs>
	<g clip-path="url(#clip3_499)">
		<path id="path" d="M17 3L7 3C4.79 3 3 4.79 3 7L3 17C3 19.2 4.79 21 7 21L17 21C19.2 21 21 19.2 21 17L21 7C21 4.79 19.2 3 17 3Z" fill="#000000" fill-opacity="0" fill-rule="nonzero"/>
		<path id="path" d="M7 3C4.79 3 3 4.79 3 7L3 17C3 19.2 4.79 21 7 21L17 21C19.2 21 21 19.2 21 17L21 7C21 4.79 19.2 3 17 3L7 3Z" stroke="#35241D" stroke-opacity="1.000000" stroke-width="1.000000" stroke-linejoin="round"/>
		<path id="path" d="M12 16C14.2 16 16 14.2 16 12C16 9.79 14.2 8 12 8C9.79 8 8 9.79 8 12C8 14.2 9.79 16 12 16Z" fill="#000000" fill-opacity="0" fill-rule="nonzero"/>
		<path id="path" d="M16 12C16 9.79 14.2 8 12 8C9.79 8 8 9.79 8 12C8 14.2 9.79 16 12 16C14.2 16 16 14.2 16 12Z" stroke="#35241D" stroke-opacity="1.000000" stroke-width="1.000000" stroke-linejoin="round"/>
		<path id="path" d="M18 7C18.55 7 19 6.55 19 6C19 5.44 18.55 5 18 5C17.44 5 17 5.44 17 6C17 6.55 17.44 7 18 7Z" fill="#35241D" fill-opacity="1.000000" fill-rule="nonzero"/>
	</g>
</svg>
