<svg width="24.000000" height="24.000000" viewBox="0 0 24 24" fill="none" xmlns="http://www.w3.org/2000/svg" xmlns:xlink="http://www.w3.org/1999/xlink">
	<desc>
			Created with Pixso.
	</desc>
	<defs>
		<clipPath id="clip3_512">
			<rect id="telegram_logo_thin_icon_171481" width="24.000000" height="24.000000" fill="white" fill-opacity="0"/>
		</clipPath>
	</defs>
	<g clip-path="url(#clip3_512)">
		<path id="path" d="M21.43 3.25C21.27 3.12 21.09 3.03 20.89 3C20.68 2.96 20.48 2.98 20.29 3.06L2.98 9.86C2.87 9.9 2.77 9.96 2.67 10.04C2.58 10.12 2.5 10.21 2.44 10.31C2.37 10.42 2.33 10.53 2.3 10.64C2.27 10.76 2.26 10.88 2.27 11C2.28 11.12 2.31 11.24 2.36 11.35C2.41 11.46 2.48 11.56 2.56 11.66C2.64 11.75 2.73 11.82 2.84 11.88C2.94 11.94 3.05 11.98 3.17 12.01L7.87 12.95L7.87 18.74C7.87 18.97 7.93 19.18 8.06 19.37C8.18 19.56 8.35 19.7 8.56 19.78C8.7 19.84 8.85 19.87 9 19.87C9.31 19.87 9.57 19.76 9.79 19.54L12.47 16.86L16.43 20.34C16.64 20.53 16.88 20.62 17.17 20.62C17.29 20.62 17.4 20.6 17.52 20.57C17.7 20.51 17.87 20.4 18 20.26C18.13 20.11 18.22 19.94 18.27 19.75L21.79 4.36C21.84 4.15 21.83 3.95 21.77 3.76C21.7 3.56 21.59 3.39 21.43 3.25ZM3.02 10.94C3.01 10.85 3.03 10.78 3.07 10.71C3.12 10.63 3.18 10.58 3.26 10.56L19.12 4.32L8.16 12.24L3.32 11.27C3.24 11.26 3.17 11.22 3.11 11.16C3.06 11.09 3.03 11.02 3.02 10.94ZM9.26 19.01C9.21 19.06 9.14 19.1 9.07 19.11C8.99 19.13 8.92 19.12 8.85 19.09C8.78 19.06 8.73 19.01 8.68 18.95C8.64 18.89 8.62 18.82 8.62 18.74L8.62 13.47L11.91 16.36L9.26 19.01ZM21.06 4.19L17.54 19.58C17.52 19.64 17.49 19.7 17.45 19.75C17.4 19.8 17.35 19.83 17.29 19.85C17.22 19.87 17.16 19.87 17.09 19.86C17.03 19.85 16.97 19.82 16.92 19.78L8.85 12.67L21 3.89C21.07 3.98 21.09 4.08 21.06 4.19Z" fill="#1F1410" fill-opacity="1.000000" fill-rule="nonzero"/>
	</g>
</svg>
