<svg width="22.000000" height="22.000000" viewBox="0 0 22 22" fill="none" xmlns="http://www.w3.org/2000/svg" xmlns:xlink="http://www.w3.org/1999/xlink">
	<desc>
			Created with Pixso.
	</desc>
	<defs>
		<clipPath id="clip3_510">
			<rect id="whatsapp-svgrepo-com" width="22.000000" height="22.000000" fill="white" fill-opacity="0"/>
		</clipPath>
	</defs>
	<g clip-path="url(#clip3_510)">
		<path id="path" d="M11 1.14C10.57 1.14 10.14 1.17 9.72 1.22C9.3 1.28 8.88 1.36 8.47 1.47C8.06 1.58 7.66 1.72 7.26 1.88C6.87 2.04 6.49 2.23 6.11 2.44C5.74 2.65 5.39 2.88 5.05 3.14C4.71 3.4 4.39 3.68 4.09 3.98C3.78 4.28 3.5 4.59 3.24 4.93C2.97 5.26 2.73 5.62 2.52 5.98C2.3 6.35 2.11 6.73 1.94 7.12C1.77 7.51 1.63 7.91 1.51 8.32C1.4 8.73 1.31 9.15 1.25 9.57C1.19 9.99 1.15 10.42 1.14 10.84C1.14 11.27 1.16 11.69 1.21 12.12C1.25 12.54 1.33 12.96 1.43 13.37C1.53 13.78 1.66 14.19 1.82 14.59C1.97 14.98 2.15 15.37 2.36 15.74L1.14 20.85L6.25 19.63C6.91 20 7.6 20.28 8.32 20.48C9.04 20.68 9.78 20.8 10.53 20.84C11.28 20.87 12.02 20.82 12.76 20.69C13.5 20.55 14.21 20.34 14.9 20.04C15.59 19.74 16.24 19.37 16.84 18.92C17.45 18.47 17.99 17.96 18.48 17.39C18.97 16.82 19.39 16.2 19.73 15.54C20.08 14.87 20.34 14.17 20.53 13.45C20.72 12.72 20.82 11.98 20.84 11.23C20.86 10.48 20.79 9.73 20.64 9C20.48 8.26 20.25 7.55 19.94 6.87C19.62 6.19 19.24 5.55 18.78 4.96C18.32 4.37 17.79 3.83 17.21 3.36C16.63 2.88 16 2.48 15.33 2.15C14.65 1.82 13.95 1.57 13.22 1.4C12.49 1.23 11.75 1.14 11 1.14ZM6.07 5.62L8.75 5.62C9.06 5.62 9.21 5.77 9.21 6.08C9.2 6.69 9.3 7.29 9.51 7.87C9.61 8.07 9.63 8.27 9.57 8.48C9.51 8.7 9.39 8.86 9.21 8.99L8.27 9.9C8.69 10.72 9.23 11.45 9.89 12.1C10.53 12.77 11.25 13.32 12.07 13.75L12.99 12.81C13.45 12.35 13.66 12.35 14.11 12.5C14.68 12.72 15.28 12.82 15.9 12.81C16.19 12.82 16.34 12.97 16.36 13.26L16.36 15.95C16.34 16.24 16.19 16.39 15.9 16.41C13.11 16.29 10.72 15.24 8.73 13.27C6.76 11.29 5.71 8.9 5.6 6.1C5.6 5.79 5.76 5.63 6.07 5.62Z" fill="#000000" fill-opacity="0" fill-rule="nonzero"/>
		<path id="path" d="M9.72 1.22C9.3 1.28 8.88 1.36 8.47 1.47C8.06 1.58 7.66 1.72 7.26 1.88C6.87 2.04 6.49 2.23 6.11 2.44C5.74 2.65 5.39 2.88 5.05 3.14C4.71 3.4 4.39 3.68 4.09 3.98C3.78 4.28 3.5 4.59 3.24 4.93C2.97 5.26 2.73 5.62 2.52 5.98C2.3 6.35 2.11 6.73 1.94 7.12C1.77 7.51 1.63 7.91 1.51 8.32C1.4 8.73 1.31 9.15 1.25 9.57C1.19 9.99 1.15 10.42 1.14 10.84C1.14 11.27 1.16 11.69 1.21 12.12C1.25 12.54 1.33 12.96 1.43 13.37C1.53 13.78 1.66 14.19 1.82 14.59C1.97 14.98 2.15 15.37 2.36 15.74L1.14 20.85L6.25 19.63C6.91 20 7.6 20.28 8.32 20.48C9.04 20.68 9.78 20.8 10.53 20.84C11.28 20.87 12.02 20.82 12.76 20.69C13.5 20.55 14.21 20.34 14.9 20.04C15.59 19.74 16.24 19.37 16.84 18.92C17.45 18.47 17.99 17.96 18.48 17.39C18.97 16.82 19.39 16.2 19.73 15.54C20.08 14.87 20.34 14.17 20.53 13.45C20.72 12.72 20.82 11.98 20.84 11.23C20.86 10.48 20.79 9.73 20.64 9C20.48 8.26 20.25 7.55 19.94 6.87C19.62 6.19 19.24 5.55 18.78 4.96C18.32 4.37 17.79 3.83 17.21 3.36C16.63 2.88 16 2.48 15.33 2.15C14.65 1.82 13.95 1.57 13.22 1.4C12.49 1.23 11.75 1.14 11 1.14C10.57 1.14 10.14 1.17 9.72 1.22ZM8.75 5.62C9.06 5.62 9.21 5.77 9.21 6.08C9.2 6.69 9.3 7.29 9.51 7.87C9.61 8.07 9.63 8.27 9.57 8.48C9.51 8.7 9.39 8.86 9.21 8.99L8.27 9.9C8.69 10.72 9.23 11.45 9.89 12.1C10.53 12.77 11.25 13.32 12.07 13.75L12.99 12.81C13.45 12.35 13.66 12.35 14.11 12.5C14.68 12.72 15.28 12.82 15.9 12.81C16.19 12.82 16.34 12.97 16.36 13.26L16.36 15.95C16.34 16.24 16.19 16.39 15.9 16.41C13.11 16.29 10.72 15.24 8.73 13.27C6.76 11.29 5.71 8.9 5.6 6.1C5.6 5.79 5.76 5.63 6.07 5.62L8.75 5.62Z" stroke="#1F1410" stroke-opacity="1.000000" stroke-width="1.000000" stroke-linejoin="round"/>
	</g>
</svg>
