<svg width="667.389648" height="220.419556" viewBox="0 0 667.39 220.42" fill="none" xmlns="http://www.w3.org/2000/svg" xmlns:xlink="http://www.w3.org/1999/xlink">
	<desc>
			Created with Pixso.
	</desc>
	<defs/>
	<path id="path24" d="M105.24 95.76C105.24 89.37 103.89 84.1 101.2 79.96C98.5 75.82 95.26 72.5 91.46 69.99C87.66 67.48 83.76 65.6 79.76 64.34C75.75 63.09 72.43 62.08 69.81 61.33L44.74 54.18C41.15 53.18 37.6 52.02 34.07 50.7C30.55 49.39 27.37 47.76 24.54 45.81C21.71 43.87 19.4 41.48 17.6 38.66C15.81 35.84 14.91 32.42 14.91 28.41C14.91 23.39 16.05 19.25 18.33 15.99C20.61 12.73 23.47 10.09 26.93 8.09C30.38 6.08 34.11 4.67 38.11 3.85C42.12 3.04 45.78 2.63 49.09 2.63C55.03 2.63 60.24 3.6 64.74 5.55C69.22 7.49 73.06 10.06 76.23 13.26C79.41 16.46 81.14 19.36 83.14 23.56C85.15 27.77 86.7 34.09 87.53 38.61L90.74 38.63L90.74 3.38L87.83 3.38C86.73 5.14 85.87 6.23 85.25 6.67C84.62 7.12 83.41 7.33 81.62 7.33C79.68 7.33 77.79 6.96 75.92 6.2C74.06 5.45 71.95 4.6 69.6 3.66C67.25 2.72 64.46 1.88 61.21 1.12C57.97 0.37 53.93 0 49.09 0C42.46 0 36.35 1 30.76 3.01C25.17 5.01 20.37 7.77 16.36 11.28C12.35 14.8 9.25 18.97 7.04 23.8C4.83 28.63 3.72 33.86 3.72 39.51C3.72 48.16 6.59 55.06 12.32 60.2C18.05 65.35 26.51 69.49 37.7 72.62L61.52 79.21C64.42 79.96 67.5 81.03 70.74 82.4C73.99 83.79 76.99 85.57 79.76 87.77C82.52 89.96 84.8 92.63 86.59 95.76C88.39 98.9 89.28 102.66 89.28 107.05C89.28 110.06 88.73 113.36 87.63 116.93C86.52 120.51 84.59 123.83 81.83 126.9C79.06 129.98 75.33 132.52 70.64 134.52C65.94 136.53 59.94 137.53 52.62 137.53C49.99 137.53 47.19 137.47 44.23 137.35C41.25 137.22 38.15 136.78 34.9 136.03C30.88 135.1 26.95 133.61 23.46 131.39C9.54 122.54 6.58 106.57 3.23 91.6L0 91.6L0 137.35L3.1 137.35C3.65 136.09 4.31 135.09 5.07 134.34C5.83 133.58 7.25 133.21 9.32 133.21C11.66 133.21 14.43 133.71 17.6 134.71C20.78 135.72 23.75 136.59 26.51 137.35C28.86 137.97 31 138.44 32.93 138.76C34.87 139.07 36.8 139.35 38.74 139.6C40.67 139.85 42.74 140.01 44.95 140.07C47.16 140.14 49.72 140.17 52.62 140.17C60.76 140.17 68.08 138.95 74.58 136.5C81.07 134.05 86.59 130.79 91.15 126.71C95.71 122.64 99.19 117.94 101.61 112.6C104.03 107.27 105.24 101.66 105.24 95.76Z" fill="#35241D" fill-opacity="1.000000" fill-rule="nonzero"/>
	<path id="path24" d="M101.2 79.96C98.5 75.82 95.26 72.5 91.46 69.99C87.66 67.48 83.76 65.6 79.76 64.34C75.75 63.09 72.43 62.08 69.81 61.33L44.74 54.18C41.15 53.18 37.6 52.02 34.07 50.7C30.55 49.39 27.37 47.76 24.54 45.81C21.71 43.87 19.4 41.48 17.6 38.66C15.81 35.84 14.91 32.42 14.91 28.41C14.91 23.39 16.05 19.25 18.33 15.99C20.61 12.73 23.47 10.09 26.93 8.09C30.38 6.08 34.11 4.67 38.11 3.85C42.12 3.04 45.78 2.63 49.09 2.63C55.03 2.63 60.24 3.6 64.74 5.55C69.22 7.49 73.06 10.06 76.23 13.26C79.41 16.46 81.14 19.36 83.14 23.56C85.15 27.77 86.7 34.09 87.53 38.61L90.74 38.63L90.74 3.38L87.83 3.38C86.73 5.14 85.87 6.23 85.25 6.67C84.62 7.12 83.41 7.33 81.62 7.33C79.68 7.33 77.79 6.96 75.92 6.2C74.06 5.45 71.95 4.6 69.6 3.66C67.25 2.72 64.46 1.88 61.21 1.12C57.97 0.37 53.93 0 49.09 0C42.46 0 36.35 1 30.76 3.01C25.17 5.01 20.37 7.77 16.36 11.28C12.35 14.8 9.25 18.97 7.04 23.8C4.83 28.63 3.72 33.86 3.72 39.51C3.72 48.16 6.59 55.06 12.32 60.2C18.05 65.35 26.51 69.49 37.7 72.62L61.52 79.21C64.42 79.96 67.5 81.03 70.74 82.4C73.99 83.79 76.99 85.57 79.76 87.77C82.52 89.96 84.8 92.63 86.59 95.76C88.39 98.9 89.28 102.66 89.28 107.05C89.28 110.06 88.73 113.36 87.63 116.93C86.52 120.51 84.59 123.83 81.83 126.9C79.06 129.98 75.33 132.52 70.64 134.52C65.94 136.53 59.94 137.53 52.62 137.53C49.99 137.53 47.19 137.47 44.23 137.35C41.25 137.22 38.15 136.78 34.9 136.03C30.88 135.1 26.95 133.61 23.46 131.39C9.54 122.54 6.58 106.57 3.23 91.6L0 91.6L0 137.35L3.1 137.35C3.65 136.09 4.31 135.09 5.07 134.34C5.83 133.58 7.25 133.21 9.32 133.21C11.66 133.21 14.43 133.71 17.6 134.71C20.78 135.72 23.75 136.59 26.51 137.35C28.86 137.97 31 138.44 32.93 138.76C34.87 139.07 36.8 139.35 38.74 139.6C40.67 139.85 42.74 140.01 44.95 140.07C47.16 140.14 49.72 140.17 52.62 140.17C60.76 140.17 68.08 138.95 74.58 136.5C81.07 134.05 86.59 130.79 91.15 126.71C95.71 122.64 99.19 117.94 101.61 112.6C104.03 107.27 105.24 101.66 105.24 95.76C105.24 89.37 103.89 84.1 101.2 79.96Z" stroke="#000000" stroke-opacity="0" stroke-width="1.333333"/>
	<path id="path28" d="M204.53 81.07L228.35 26.62L250.65 81.07L204.53 81.07ZM224.73 3.1L219.45 3.1L161.08 134.71L145.22 134.71L145.22 6.02L168.21 6.02L168.21 3.38L101.51 3.38L101.51 6.02L124.5 6.02L124.5 134.71L101.51 134.71L101.51 137.35L204.53 137.35L204.53 134.77L181.37 134.76L203.44 83.65L251.75 83.65L273.16 134.77L250.11 134.77L250.11 137.35L294.65 137.35L294.65 134.77L279.03 134.75L224.73 3.1Z" fill="#35241D" fill-opacity="1.000000" fill-rule="nonzero"/>
	<path id="path28" d="M228.35 26.62L250.65 81.07L204.53 81.07L228.35 26.62ZM219.45 3.1L161.08 134.71L145.22 134.71L145.22 6.02L168.21 6.02L168.21 3.38L101.51 3.38L101.51 6.02L124.5 6.02L124.5 134.71L101.51 134.71L101.51 137.35L204.53 137.35L204.53 134.77L181.37 134.76L203.44 83.65L251.75 83.65L273.16 134.77L250.11 134.77L250.11 137.35L294.65 137.35L294.65 134.77L279.03 134.75L224.73 3.1L219.45 3.1Z" stroke="#000000" stroke-opacity="0" stroke-width="1.333333"/>
	<path id="path32" d="M365.62 81.07L387.91 26.62L411.73 81.07L365.62 81.07ZM626.99 6.02C632.65 6.02 637.48 6.64 641.49 7.9C645.49 9.15 648.95 11.07 651.85 13.64C654.75 16.21 657.23 19.35 659.31 23.04C661.38 26.75 663.31 31.04 665.11 35.93L667.39 35.93L667.39 3.38L554.89 3.38L554.89 6.02L577.89 6.02L577.89 134.71L562.09 134.71L562.09 96.14L559.81 96.14C556.63 108.06 551.59 117.47 544.68 124.36C537.78 131.26 528.25 134.71 516.09 134.71L492.67 134.71L492.67 6.02L515.67 6.02L515.67 3.38L448.96 3.38L448.96 6.02L471.95 6.02L471.95 134.71L455.18 134.71L396.81 3.1L391.54 3.1L337.24 134.75L321.61 134.77L321.61 137.35L366.15 137.35L366.15 134.77L343.11 134.77L364.52 83.65L412.83 83.65L434.89 134.76L411.73 134.77L411.73 137.35L667.39 137.35L667.39 96.14L665.11 96.14C664.69 99.03 663.72 102.66 662.21 107.05C660.68 111.45 658.34 115.68 655.16 119.75C651.98 123.83 647.87 127.34 642.84 130.29C637.79 133.24 631.47 134.71 623.88 134.71L598.6 134.71L598.6 66.79L610.96 66.79C615.94 66.79 619.98 67.57 623.08 69.14C626.19 70.71 628.68 72.81 630.54 75.44C632.4 78.08 633.86 81.09 634.89 84.47C635.93 87.86 636.93 91.38 637.9 95.01L640.17 95.01L640.17 36.5L637.9 36.5C636.37 42.14 634.82 46.75 633.23 50.33C631.65 53.9 629.71 56.72 627.43 58.79C625.15 60.86 622.43 62.27 619.25 63.03C616.07 63.78 612.21 64.15 607.65 64.15L598.6 64.15L598.6 6.02L626.99 6.02Z" fill="#35241D" fill-opacity="1.000000" fill-rule="nonzero"/>
	<path id="path32" d="M387.91 26.62L411.73 81.07L365.62 81.07L387.91 26.62ZM641.49 7.9C645.49 9.15 648.95 11.07 651.85 13.64C654.75 16.21 657.23 19.35 659.31 23.04C661.38 26.75 663.31 31.04 665.11 35.93L667.39 35.93L667.39 3.38L554.89 3.38L554.89 6.02L577.89 6.02L577.89 134.71L562.09 134.71L562.09 96.14L559.81 96.14C556.63 108.06 551.59 117.47 544.68 124.36C537.78 131.26 528.25 134.71 516.09 134.71L492.67 134.71L492.67 6.02L515.67 6.02L515.67 3.38L448.96 3.38L448.96 6.02L471.95 6.02L471.95 134.71L455.18 134.71L396.81 3.1L391.54 3.1L337.24 134.75L321.61 134.77L321.61 137.35L366.15 137.35L366.15 134.77L343.11 134.77L364.52 83.65L412.83 83.65L434.89 134.76L411.73 134.77L411.73 137.35L667.39 137.35L667.39 96.14L665.11 96.14C664.69 99.03 663.72 102.66 662.21 107.05C660.68 111.45 658.34 115.68 655.16 119.75C651.98 123.83 647.87 127.34 642.84 130.29C637.79 133.24 631.47 134.71 623.88 134.71L598.6 134.71L598.6 66.79L610.96 66.79C615.94 66.79 619.98 67.57 623.08 69.14C626.19 70.71 628.68 72.81 630.54 75.44C632.4 78.08 633.86 81.09 634.89 84.47C635.93 87.86 636.93 91.38 637.9 95.01L640.17 95.01L640.17 36.5L637.9 36.5C636.37 42.14 634.82 46.75 633.23 50.33C631.65 53.9 629.71 56.72 627.43 58.79C625.15 60.86 622.43 62.27 619.25 63.03C616.07 63.78 612.21 64.15 607.65 64.15L598.6 64.15L598.6 6.02L626.99 6.02C632.65 6.02 637.48 6.64 641.49 7.9Z" stroke="#000000" stroke-opacity="0" stroke-width="1.333333"/>
	<path id="path36" d="M171.35 220.42L171.35 181.47L178.3 181.47L178.3 184.32L174.2 184.32L174.2 217.57L178.3 217.57L178.3 220.42L171.35 220.42Z" fill="#35241D" fill-opacity="1.000000" fill-rule="nonzero"/>
	<path id="path36" d="M171.35 181.47L178.3 181.47L178.3 184.32L174.2 184.32L174.2 217.57L178.3 217.57L178.3 220.42L171.35 220.42L171.35 181.47Z" stroke="#000000" stroke-opacity="0" stroke-width="1.333333"/>
	<path id="path40" d="M192.19 213.61L192.19 188.28L195.04 188.28L204.61 208.45L214.13 188.28L217.01 188.28L217.01 213.59L214.04 213.59L214.04 195.16L205.44 213.61L203.77 213.61L195.16 195.16L195.16 213.61L192.19 213.61Z" fill="#35241D" fill-opacity="1.000000" fill-rule="nonzero"/>
	<path id="path40" d="M192.19 188.28L195.04 188.28L204.61 208.45L214.13 188.28L217.01 188.28L217.01 213.59L214.04 213.59L214.04 195.16L205.44 213.61L203.77 213.61L195.16 195.16L195.16 213.61L192.19 213.61L192.19 188.28Z" stroke="#000000" stroke-opacity="0" stroke-width="1.333333"/>
	<path id="path44" d="M233.23 211.14C235.12 211.16 236.69 210.73 237.94 209.87C239.2 209.01 240.14 207.81 240.77 206.27C241.41 204.74 241.72 202.96 241.72 200.94C241.72 198.93 241.41 197.15 240.77 195.62C240.14 194.09 239.2 192.9 237.94 192.04C236.69 191.19 235.12 190.75 233.23 190.74C231.34 190.73 229.77 191.15 228.52 192.01C227.28 192.86 226.33 194.06 225.7 195.6C225.07 197.14 224.74 198.93 224.73 200.94C224.72 202.96 225.03 204.73 225.66 206.26C226.3 207.78 227.24 208.97 228.5 209.83C229.76 210.7 231.34 211.13 233.23 211.14ZM233.23 214.13C230.71 214.13 228.56 213.58 226.81 212.46C225.05 211.35 223.71 209.8 222.79 207.82C221.87 205.84 221.41 203.54 221.41 200.94C221.41 198.34 221.87 196.05 222.79 194.06C223.71 192.08 225.05 190.54 226.81 189.42C228.56 188.31 230.71 187.75 233.23 187.75C235.76 187.75 237.91 188.31 239.67 189.42C241.43 190.54 242.76 192.08 243.67 194.06C244.59 196.05 245.05 198.34 245.05 200.94C245.05 203.54 244.59 205.84 243.67 207.82C242.76 209.8 241.43 211.35 239.67 212.46C237.91 213.58 235.76 214.13 233.23 214.13Z" fill="#35241D" fill-opacity="1.000000" fill-rule="nonzero"/>
	<path id="path44" d="M237.94 209.87C239.2 209.01 240.14 207.81 240.77 206.27C241.41 204.74 241.72 202.96 241.72 200.94C241.72 198.93 241.41 197.15 240.77 195.62C240.14 194.09 239.2 192.9 237.94 192.04C236.69 191.19 235.12 190.75 233.23 190.74C231.34 190.73 229.77 191.15 228.52 192.01C227.28 192.86 226.33 194.06 225.7 195.6C225.07 197.14 224.74 198.93 224.73 200.94C224.72 202.96 225.03 204.73 225.66 206.26C226.3 207.78 227.24 208.97 228.5 209.83C229.76 210.7 231.34 211.13 233.23 211.14C235.12 211.16 236.69 210.73 237.94 209.87ZM226.81 212.46C225.05 211.35 223.71 209.8 222.79 207.82C221.87 205.84 221.41 203.54 221.41 200.94C221.41 198.34 221.87 196.05 222.79 194.06C223.71 192.08 225.05 190.54 226.81 189.42C228.56 188.31 230.71 187.75 233.23 187.75C235.76 187.75 237.91 188.31 239.67 189.42C241.43 190.54 242.76 192.08 243.67 194.06C244.59 196.05 245.05 198.34 245.05 200.94C245.05 203.54 244.59 205.84 243.67 207.82C242.76 209.8 241.43 211.35 239.67 212.46C237.91 213.58 235.76 214.13 233.23 214.13C230.71 214.13 228.56 213.58 226.81 212.46Z" stroke="#000000" stroke-opacity="0" stroke-width="1.333333"/>
	<path id="path48" d="M258.44 214.13C256.64 214.13 255.03 213.83 253.59 213.22C252.15 212.61 250.96 211.74 250.03 210.61C249.1 209.48 248.5 208.14 248.22 206.59L251.45 206.08C251.86 207.67 252.71 208.92 254.01 209.82C255.31 210.71 256.84 211.16 258.59 211.16C259.73 211.16 260.76 210.98 261.67 210.63C262.58 210.27 263.32 209.76 263.86 209.09C264.41 208.42 264.68 207.63 264.68 206.71C264.68 206.16 264.58 205.68 264.38 205.27C264.18 204.86 263.92 204.51 263.59 204.23C263.26 203.95 262.88 203.71 262.46 203.51C262.04 203.31 261.6 203.14 261.14 203L254.69 201.08C253.98 200.88 253.3 200.62 252.65 200.3C251.99 199.98 251.4 199.57 250.89 199.09C250.37 198.6 249.96 198.01 249.66 197.32C249.35 196.63 249.2 195.81 249.2 194.87C249.2 193.39 249.59 192.11 250.37 191.04C251.15 189.97 252.21 189.16 253.55 188.6C254.88 188.05 256.39 187.77 258.06 187.77C259.77 187.78 261.29 188.08 262.63 188.67C263.97 189.27 265.09 190.11 265.97 191.22C266.86 192.32 267.45 193.64 267.76 195.17L264.43 195.75C264.26 194.73 263.87 193.85 263.26 193.1C262.66 192.35 261.9 191.77 261 191.36C260.1 190.96 259.11 190.75 258.03 190.74C257 190.73 256.06 190.9 255.23 191.24C254.4 191.59 253.74 192.06 253.25 192.67C252.75 193.27 252.51 193.96 252.51 194.73C252.51 195.52 252.73 196.15 253.18 196.62C253.62 197.08 254.17 197.46 254.82 197.73C255.47 198.01 256.11 198.23 256.73 198.41L261.55 199.8C262.1 199.95 262.74 200.16 263.46 200.43C264.18 200.7 264.88 201.08 265.56 201.57C266.24 202.05 266.8 202.7 267.25 203.5C267.69 204.3 267.91 205.32 267.91 206.54C267.91 207.76 267.67 208.84 267.19 209.79C266.7 210.74 266.02 211.54 265.15 212.18C264.29 212.83 263.28 213.31 262.13 213.64C260.98 213.97 259.75 214.13 258.44 214.13Z" fill="#35241D" fill-opacity="1.000000" fill-rule="nonzero"/>
	<path id="path48" d="M253.59 213.22C252.15 212.61 250.96 211.74 250.03 210.61C249.1 209.48 248.5 208.14 248.22 206.59L251.45 206.08C251.86 207.67 252.71 208.92 254.01 209.82C255.31 210.71 256.84 211.16 258.59 211.16C259.73 211.16 260.76 210.98 261.67 210.63C262.58 210.27 263.32 209.76 263.86 209.09C264.41 208.42 264.68 207.63 264.68 206.71C264.68 206.16 264.58 205.68 264.38 205.27C264.18 204.86 263.92 204.51 263.59 204.23C263.26 203.95 262.88 203.71 262.46 203.51C262.04 203.31 261.6 203.14 261.14 203L254.69 201.08C253.98 200.88 253.3 200.62 252.65 200.3C251.99 199.98 251.4 199.57 250.89 199.09C250.37 198.6 249.96 198.01 249.66 197.32C249.35 196.63 249.2 195.81 249.2 194.87C249.2 193.39 249.59 192.11 250.37 191.04C251.15 189.97 252.21 189.16 253.55 188.6C254.88 188.05 256.39 187.77 258.06 187.77C259.77 187.78 261.29 188.08 262.63 188.67C263.97 189.27 265.09 190.11 265.97 191.22C266.86 192.32 267.45 193.64 267.76 195.17L264.43 195.75C264.26 194.73 263.87 193.85 263.26 193.1C262.66 192.35 261.9 191.77 261 191.36C260.1 190.96 259.11 190.75 258.03 190.74C257 190.73 256.06 190.9 255.23 191.24C254.4 191.59 253.74 192.06 253.25 192.67C252.75 193.27 252.51 193.96 252.51 194.73C252.51 195.52 252.73 196.15 253.18 196.62C253.62 197.08 254.17 197.46 254.82 197.73C255.47 198.01 256.11 198.23 256.73 198.41L261.55 199.8C262.1 199.95 262.74 200.16 263.46 200.43C264.18 200.7 264.88 201.08 265.56 201.57C266.24 202.05 266.8 202.7 267.25 203.5C267.69 204.3 267.91 205.32 267.91 206.54C267.91 207.76 267.67 208.84 267.19 209.79C266.7 210.74 266.02 211.54 265.15 212.18C264.29 212.83 263.28 213.31 262.13 213.64C260.98 213.97 259.75 214.13 258.44 214.13C256.64 214.13 255.03 213.83 253.59 213.22Z" stroke="#000000" stroke-opacity="0" stroke-width="1.333333"/>
	<path id="path52" d="M282.9 214.13C280.38 214.13 278.24 213.58 276.48 212.46C274.72 211.35 273.38 209.8 272.46 207.82C271.54 205.84 271.08 203.54 271.08 200.94C271.08 198.34 271.54 196.05 272.46 194.06C273.38 192.08 274.72 190.54 276.48 189.42C278.24 188.31 280.38 187.75 282.9 187.75C285.83 187.75 288.24 188.5 290.14 189.98C292.03 191.47 293.34 193.48 294.05 196L290.87 196.84C290.35 194.96 289.43 193.47 288.1 192.38C286.77 191.29 285.04 190.74 282.9 190.74C281.01 190.74 279.44 191.17 278.19 192.02C276.93 192.88 275.99 194.08 275.36 195.61C274.72 197.15 274.4 198.93 274.39 200.94C274.38 202.96 274.69 204.73 275.32 206.26C275.95 207.79 276.9 208.99 278.17 209.85C279.44 210.71 281.01 211.14 282.9 211.14C285.04 211.14 286.77 210.6 288.1 209.5C289.43 208.4 290.35 206.92 290.87 205.04L294.05 205.88C293.34 208.41 292.03 210.41 290.14 211.9C288.24 213.39 285.83 214.13 282.9 214.13Z" fill="#35241D" fill-opacity="1.000000" fill-rule="nonzero"/>
	<path id="path52" d="M276.48 212.46C274.72 211.35 273.38 209.8 272.46 207.82C271.54 205.84 271.08 203.54 271.08 200.94C271.08 198.34 271.54 196.05 272.46 194.06C273.38 192.08 274.72 190.54 276.48 189.42C278.24 188.31 280.38 187.75 282.9 187.75C285.83 187.75 288.24 188.5 290.14 189.98C292.03 191.47 293.34 193.48 294.05 196L290.87 196.84C290.35 194.96 289.43 193.47 288.1 192.38C286.77 191.29 285.04 190.74 282.9 190.74C281.01 190.74 279.44 191.17 278.19 192.02C276.93 192.88 275.99 194.08 275.36 195.61C274.72 197.15 274.4 198.93 274.39 200.94C274.38 202.96 274.69 204.73 275.32 206.26C275.95 207.79 276.9 208.99 278.17 209.85C279.44 210.71 281.01 211.14 282.9 211.14C285.04 211.14 286.77 210.6 288.1 209.5C289.43 208.4 290.35 206.92 290.87 205.04L294.05 205.88C293.34 208.41 292.03 210.41 290.14 211.9C288.24 213.39 285.83 214.13 282.9 214.13C280.38 214.13 278.24 213.58 276.48 212.46Z" stroke="#000000" stroke-opacity="0" stroke-width="1.333333"/>
	<path id="path56" d="M309.22 211.14C311.1 211.16 312.67 210.73 313.93 209.87C315.19 209.01 316.13 207.81 316.76 206.27C317.4 204.74 317.71 202.96 317.71 200.94C317.71 198.93 317.4 197.15 316.76 195.62C316.13 194.09 315.19 192.9 313.93 192.04C312.67 191.19 311.1 190.75 309.22 190.74C307.33 190.73 305.76 191.15 304.51 192.01C303.26 192.86 302.32 194.06 301.69 195.6C301.05 197.14 300.73 198.93 300.72 200.94C300.71 202.96 301.02 204.73 301.65 206.26C302.28 207.78 303.23 208.97 304.49 209.83C305.75 210.7 307.33 211.13 309.22 211.14ZM309.22 214.13C306.7 214.13 304.55 213.58 302.79 212.46C301.04 211.35 299.7 209.8 298.78 207.82C297.85 205.84 297.4 203.54 297.4 200.94C297.4 198.34 297.85 196.05 298.78 194.06C299.7 192.08 301.04 190.54 302.79 189.42C304.55 188.31 306.7 187.75 309.22 187.75C311.75 187.75 313.9 188.31 315.65 189.42C317.42 190.54 318.75 192.08 319.66 194.06C320.58 196.05 321.03 198.34 321.03 200.94C321.03 203.54 320.58 205.84 319.66 207.82C318.75 209.8 317.42 211.35 315.65 212.46C313.9 213.58 311.75 214.13 309.22 214.13Z" fill="#35241D" fill-opacity="1.000000" fill-rule="nonzero"/>
	<path id="path56" d="M313.93 209.87C315.19 209.01 316.13 207.81 316.76 206.27C317.4 204.74 317.71 202.96 317.71 200.94C317.71 198.93 317.4 197.15 316.76 195.62C316.13 194.09 315.19 192.9 313.93 192.04C312.67 191.19 311.1 190.75 309.22 190.74C307.33 190.73 305.76 191.15 304.51 192.01C303.26 192.86 302.32 194.06 301.69 195.6C301.05 197.14 300.73 198.93 300.72 200.94C300.71 202.96 301.02 204.73 301.65 206.26C302.28 207.78 303.23 208.97 304.49 209.83C305.75 210.7 307.33 211.13 309.22 211.14C311.1 211.16 312.67 210.73 313.93 209.87ZM302.79 212.46C301.04 211.35 299.7 209.8 298.78 207.82C297.85 205.84 297.4 203.54 297.4 200.94C297.4 198.34 297.85 196.05 298.78 194.06C299.7 192.08 301.04 190.54 302.79 189.42C304.55 188.31 306.7 187.75 309.22 187.75C311.75 187.75 313.9 188.31 315.65 189.42C317.42 190.54 318.75 192.08 319.66 194.06C320.58 196.05 321.03 198.34 321.03 200.94C321.03 203.54 320.58 205.84 319.66 207.82C318.75 209.8 317.42 211.35 315.65 212.46C313.9 213.58 311.75 214.13 309.22 214.13C306.7 214.13 304.55 213.58 302.79 212.46Z" stroke="#000000" stroke-opacity="0" stroke-width="1.333333"/>
	<path id="path60" d="M329.78 213.61L322.44 188.28L325.71 188.28L331.34 208.31L336.96 188.3L340.24 188.28L345.87 208.31L351.48 188.28L354.77 188.28L347.44 213.61L344.31 213.61L338.61 193.75L332.91 213.61L329.78 213.61Z" fill="#35241D" fill-opacity="1.000000" fill-rule="nonzero"/>
	<path id="path60" d="M322.44 188.28L325.71 188.28L331.34 208.31L336.96 188.3L340.24 188.28L345.87 208.31L351.48 188.28L354.77 188.28L347.44 213.61L344.31 213.61L338.61 193.75L332.91 213.61L329.78 213.61L322.44 188.28Z" stroke="#000000" stroke-opacity="0" stroke-width="1.333333"/>
	<path id="path64" d="M377.69 210.62L382.28 210.62C382.73 210.62 383.22 210.6 383.78 210.57C384.33 210.54 384.81 210.49 385.22 210.42C386.6 210.17 387.72 209.59 388.58 208.68C389.44 207.78 390.07 206.65 390.46 205.3C390.86 203.96 391.06 202.5 391.06 200.94C391.06 199.35 390.86 197.88 390.46 196.54C390.05 195.19 389.42 194.07 388.55 193.18C387.69 192.28 386.58 191.71 385.22 191.46C384.81 191.38 384.32 191.33 383.76 191.3C383.19 191.28 382.71 191.27 382.28 191.27L377.69 191.27L377.69 210.62ZM374.47 213.61L374.47 188.28L382.28 188.28C382.54 188.28 382.99 188.28 383.64 188.29C384.28 188.31 384.9 188.35 385.48 188.44C387.44 188.69 389.08 189.41 390.4 190.57C391.72 191.74 392.71 193.22 393.38 195.02C394.05 196.82 394.39 198.8 394.39 200.94C394.39 203.1 394.05 205.08 393.38 206.88C392.71 208.68 391.72 210.16 390.4 211.32C389.08 212.48 387.44 213.19 385.48 213.45C384.9 213.53 384.28 213.58 383.63 213.59C382.98 213.6 382.53 213.61 382.28 213.61L374.47 213.61Z" fill="#35241D" fill-opacity="1.000000" fill-rule="nonzero"/>
	<path id="path64" d="M382.28 210.62C382.73 210.62 383.22 210.6 383.78 210.57C384.33 210.54 384.81 210.49 385.22 210.42C386.6 210.17 387.72 209.59 388.58 208.68C389.44 207.78 390.07 206.65 390.46 205.3C390.86 203.96 391.06 202.5 391.06 200.94C391.06 199.35 390.86 197.88 390.46 196.54C390.05 195.19 389.42 194.07 388.55 193.18C387.69 192.28 386.58 191.71 385.22 191.46C384.81 191.38 384.32 191.33 383.76 191.3C383.19 191.28 382.71 191.27 382.28 191.27L377.69 191.27L377.69 210.62L382.28 210.62ZM374.47 188.28L382.28 188.28C382.54 188.28 382.99 188.28 383.64 188.29C384.28 188.31 384.9 188.35 385.48 188.44C387.44 188.69 389.08 189.41 390.4 190.57C391.72 191.74 392.71 193.22 393.38 195.02C394.05 196.82 394.39 198.8 394.39 200.94C394.39 203.1 394.05 205.08 393.38 206.88C392.71 208.68 391.72 210.16 390.4 211.32C389.08 212.48 387.44 213.19 385.48 213.45C384.9 213.53 384.28 213.58 383.63 213.59C382.98 213.6 382.53 213.61 382.28 213.61L374.47 213.61L374.47 188.28Z" stroke="#000000" stroke-opacity="0" stroke-width="1.333333"/>
	<path id="path68" d="M409.3 214.13C407.34 214.13 405.61 213.73 404.11 212.92C402.61 212.11 401.43 210.98 400.59 209.52C399.73 208.06 399.31 206.34 399.31 204.37L399.31 188.3L402.47 188.28L402.47 204.11C402.47 205.3 402.68 206.34 403.08 207.23C403.49 208.12 404.02 208.85 404.69 209.44C405.36 210.02 406.1 210.46 406.9 210.75C407.7 211.04 408.5 211.18 409.3 211.18C410.11 211.18 410.91 211.03 411.72 210.74C412.52 210.45 413.25 210.01 413.91 209.43C414.58 208.85 415.11 208.11 415.52 207.22C415.92 206.33 416.13 205.29 416.13 204.11L416.13 188.28L419.29 188.28L419.29 204.37C419.29 206.33 418.87 208.04 418.01 209.51C417.17 210.98 415.99 212.11 414.49 212.92C412.99 213.73 411.26 214.13 409.3 214.13Z" fill="#35241D" fill-opacity="1.000000" fill-rule="nonzero"/>
	<path id="path68" d="M404.11 212.92C402.61 212.11 401.43 210.98 400.59 209.52C399.73 208.06 399.31 206.34 399.31 204.37L399.31 188.3L402.47 188.28L402.47 204.11C402.47 205.3 402.68 206.34 403.08 207.23C403.49 208.12 404.02 208.85 404.69 209.44C405.36 210.02 406.1 210.46 406.9 210.75C407.7 211.04 408.5 211.18 409.3 211.18C410.11 211.18 410.91 211.03 411.72 210.74C412.52 210.45 413.25 210.01 413.91 209.43C414.58 208.85 415.11 208.11 415.52 207.22C415.92 206.33 416.13 205.29 416.13 204.11L416.13 188.28L419.29 188.28L419.29 204.37C419.29 206.33 418.87 208.04 418.01 209.51C417.17 210.98 415.99 212.11 414.49 212.92C412.99 213.73 411.26 214.13 409.3 214.13C407.34 214.13 405.61 213.73 404.11 212.92Z" stroke="#000000" stroke-opacity="0" stroke-width="1.333333"/>
	<path id="path72" d="M428.26 210.62L435.25 210.62C436.18 210.62 437.02 210.44 437.76 210.1C438.5 209.75 439.08 209.26 439.51 208.63C439.94 208 440.16 207.23 440.16 206.34C440.16 205.49 439.96 204.72 439.58 204.04C439.19 203.36 438.65 202.82 437.96 202.41C437.28 202.01 436.49 201.8 435.6 201.8L428.26 201.8L428.26 210.62ZM428.26 198.85L434.93 198.85C435.67 198.85 436.34 198.69 436.95 198.36C437.56 198.04 438.05 197.59 438.4 197.01C438.76 196.43 438.94 195.74 438.94 194.94C438.94 193.85 438.57 192.96 437.82 192.27C437.08 191.58 436.11 191.23 434.93 191.23L428.26 191.23L428.26 198.85ZM425.1 213.61L425.1 188.28L434.96 188.28C436.48 188.28 437.77 188.59 438.84 189.21C439.92 189.83 440.74 190.65 441.31 191.66C441.87 192.68 442.16 193.77 442.16 194.94C442.16 196.33 441.8 197.53 441.1 198.56C440.4 199.58 439.45 200.29 438.25 200.68L438.22 199.82C439.85 200.25 441.12 201.05 442.02 202.21C442.92 203.37 443.37 204.75 443.37 206.36C443.37 207.84 443.07 209.12 442.47 210.19C441.86 211.27 441 212.11 439.86 212.71C438.73 213.31 437.39 213.61 435.84 213.61L425.1 213.61Z" fill="#35241D" fill-opacity="1.000000" fill-rule="nonzero"/>
	<path id="path72" d="M435.25 210.62C436.18 210.62 437.02 210.44 437.76 210.1C438.5 209.75 439.08 209.26 439.51 208.63C439.94 208 440.16 207.23 440.16 206.34C440.16 205.49 439.96 204.72 439.58 204.04C439.19 203.36 438.65 202.82 437.96 202.41C437.28 202.01 436.49 201.8 435.6 201.8L428.26 201.8L428.26 210.62L435.25 210.62ZM434.93 198.85C435.67 198.85 436.34 198.69 436.95 198.36C437.56 198.04 438.05 197.59 438.4 197.01C438.76 196.43 438.94 195.74 438.94 194.94C438.94 193.85 438.57 192.96 437.82 192.27C437.08 191.58 436.11 191.23 434.93 191.23L428.26 191.23L428.26 198.85L434.93 198.85ZM425.1 188.28L434.96 188.28C436.48 188.28 437.77 188.59 438.84 189.21C439.92 189.83 440.74 190.65 441.31 191.66C441.87 192.68 442.16 193.77 442.16 194.94C442.16 196.33 441.8 197.53 441.1 198.56C440.4 199.58 439.45 200.29 438.25 200.68L438.22 199.82C439.85 200.25 441.12 201.05 442.02 202.21C442.92 203.37 443.37 204.75 443.37 206.36C443.37 207.84 443.07 209.12 442.47 210.19C441.86 211.27 441 212.11 439.86 212.71C438.73 213.31 437.39 213.61 435.84 213.61L425.1 213.61L425.1 188.28Z" stroke="#000000" stroke-opacity="0" stroke-width="1.333333"/>
	<path id="path74" d="M450.07 204.74L463.23 204.74L463.23 207.68L450.07 207.68L450.07 204.74ZM445.99 213.61L454.47 188.28L458.83 188.28L467.31 213.61L464.05 213.61L456.12 190.11L457.11 190.11L449.25 213.61L445.99 213.61Z" fill="#35241D" fill-opacity="1.000000" fill-rule="nonzero"/>
	<path id="path74" d="M463.23 204.74L463.23 207.68L450.07 207.68L450.07 204.74L463.23 204.74ZM454.47 188.28L458.83 188.28L467.31 213.61L464.05 213.61L456.12 190.11L457.11 190.11L449.25 213.61L445.99 213.61L454.47 188.28Z" stroke="#000000" stroke-opacity="0" stroke-width="1.333333"/>
	<path id="path76" d="M471.71 188.28L474.84 188.28L474.84 213.61L471.71 213.61L471.71 188.28Z" fill="#35241D" fill-opacity="1.000000" fill-rule="nonzero"/>
	<path id="path76" d="M474.84 188.28L474.84 213.61L471.71 213.61L471.71 188.28L474.84 188.28Z" stroke="#000000" stroke-opacity="0" stroke-width="1.333333"/>
	<path id="path80" d="M496.03 220.42L489.08 220.42L489.08 217.57L493.18 217.57L493.18 184.32L489.08 184.32L489.08 181.47L496.03 181.47L496.03 220.42Z" fill="#35241D" fill-opacity="1.000000" fill-rule="nonzero"/>
	<path id="path80" d="M489.08 220.42L489.08 217.57L493.18 217.57L493.18 184.32L489.08 184.32L489.08 181.47L496.03 181.47L496.03 220.42L489.08 220.42Z" stroke="#000000" stroke-opacity="0" stroke-width="1.333333"/>
</svg>
