<?xml version="1.0" encoding="UTF-8" standalone="no"?>
<svg
   xmlns:dc="http://purl.org/dc/elements/1.1/"
   xmlns:cc="http://creativecommons.org/ns#"
   xmlns:rdf="http://www.w3.org/1999/02/22-rdf-syntax-ns#"
   xmlns:svg="http://www.w3.org/2000/svg"
   xmlns="http://www.w3.org/2000/svg"
   viewBox="0 0 800 800"
   height="800"
   width="800"
   xml:space="preserve"
   id="svg2"
   version="1.1"><metadata
     id="metadata8"><rdf:RDF><cc:Work
         rdf:about=""><dc:format>image/svg+xml</dc:format><dc:type
           rdf:resource="http://purl.org/dc/dcmitype/StillImage" /></cc:Work></rdf:RDF></metadata><defs
     id="defs6"><clipPath
       id="clipPath20"
       clipPathUnits="userSpaceOnUse"><path
         id="path18"
         d="M 0,600 H 600 V 0 H 0 Z" /></clipPath></defs><g
     transform="matrix(1.3333333,0,0,-1.3333333,0,800)"
     id="g10"><path
       id="path12"
       style="fill:#35241d;fill-opacity:0;fill-rule:nonzero;stroke:none"
       d="M 0,0 H 600 V 600 H 0 Z" /><g
       id="g14"><g
         clip-path="url(#clipPath20)"
         id="g16"><g
           transform="translate(128.6599,310.8305)"
           id="g22"><path
             id="path24"
             style="fill:#f9f8f1;fill-opacity:1;fill-rule:nonzero;stroke:none"
             d="m 0,0 c 0,4.799 -1.009,8.749 -3.029,11.854 -2.021,3.104 -4.456,5.595 -7.303,7.479 -2.85,1.88 -5.776,3.292 -8.779,4.233 -3.005,0.94 -5.492,1.694 -7.458,2.258 l -18.801,5.362 c -2.694,0.753 -5.36,1.624 -8.002,2.612 -2.641,0.986 -5.025,2.208 -7.147,3.668 -2.125,1.458 -3.86,3.245 -5.205,5.362 -1.347,2.116 -2.02,4.679 -2.02,7.691 0,3.761 0.854,6.865 2.564,9.313 1.709,2.446 3.857,4.421 6.448,5.927 2.587,1.503 5.384,2.562 8.39,3.175 3.003,0.611 5.749,0.918 8.235,0.918 4.452,0 8.363,-0.731 11.731,-2.188 3.364,-1.46 6.24,-3.387 8.623,-5.785 2.382,-2.399 3.681,-4.578 5.183,-7.728 1.502,-3.154 2.67,-7.898 3.293,-11.284 l 2.401,-0.013 v 26.432 h -2.176 c -0.83,-1.318 -1.476,-2.139 -1.941,-2.468 -0.467,-0.332 -1.374,-0.494 -2.72,-0.494 -1.451,0 -2.874,0.282 -4.273,0.846 -1.398,0.564 -2.979,1.2 -4.738,1.906 -1.764,0.704 -3.861,1.34 -6.293,1.904 -2.436,0.565 -5.465,0.847 -9.09,0.847 -4.972,0 -9.556,-0.754 -13.75,-2.258 -4.196,-1.506 -7.796,-3.576 -10.799,-6.209 -3.006,-2.634 -5.337,-5.764 -6.993,-9.384 -1.658,-3.622 -2.485,-7.55 -2.485,-11.783 0,-6.491 2.149,-11.666 6.447,-15.522 4.298,-3.859 10.643,-6.963 19.035,-9.314 l 17.867,-4.939 c 2.176,-0.564 4.479,-1.365 6.916,-2.398 2.432,-1.037 4.685,-2.377 6.758,-4.023 2.071,-1.647 3.78,-3.646 5.127,-5.997 1.346,-2.352 2.02,-5.174 2.02,-8.466 0,-2.258 -0.415,-4.728 -1.243,-7.409 -0.83,-2.681 -2.28,-5.174 -4.35,-7.479 -2.074,-2.306 -4.87,-4.211 -8.391,-5.715 -3.523,-1.506 -8.028,-2.258 -13.517,-2.258 -1.969,0 -4.067,0.049 -6.293,0.141 -2.229,0.093 -4.559,0.424 -6.993,0.988 -3.018,0.7 -5.962,1.814 -8.581,3.479 -10.44,6.64 -12.657,18.616 -15.171,29.841 0,0 -2.428,0 -2.428,0 v -34.308 h 2.33 c 0.413,0.939 0.907,1.694 1.476,2.258 0.569,0.565 1.632,0.847 3.185,0.847 1.761,0 3.832,-0.377 6.216,-1.129 2.382,-0.754 4.608,-1.411 6.68,-1.976 1.761,-0.469 3.366,-0.823 4.817,-1.058 1.45,-0.234 2.899,-0.446 4.352,-0.636 1.449,-0.187 3.002,-0.304 4.661,-0.352 1.656,-0.047 3.573,-0.07 5.749,-0.07 6.11,0 11.599,0.916 16.47,2.751 4.867,1.835 9.011,4.28 12.429,7.339 3.419,3.055 6.034,6.583 7.848,10.583 C -0.908,-8.632 0,-4.423 0,0" /></g><g
           transform="translate(203.1331,321.8488)"
           id="g26"><path
             id="path28"
             style="fill:#f9f8f1;fill-opacity:1;fill-rule:nonzero;stroke:none"
             d="M 0,0 17.865,40.841 34.587,0 Z m 15.144,58.48 h -3.955 l -43.777,-98.708 h -11.898 v 96.521 h 17.246 v 1.975 h -50.031 v -1.975 h 17.246 v -96.521 h -17.246 v -1.976 H 0 v 1.931 l -17.372,0.006 16.549,38.337 H 35.41 L 51.466,-40.273 H 34.183 v -1.931 h 33.406 v 1.931 l -11.718,0.019 z" /></g><g
           transform="translate(323.9442,321.8488)"
           id="g30"><path
             id="path32"
             style="fill:#f9f8f1;fill-opacity:1;fill-rule:nonzero;stroke:none"
             d="M 0,0 16.722,40.841 34.587,0 Z m 196.028,56.293 c 4.248,0 7.872,-0.471 10.877,-1.411 3.003,-0.942 5.594,-2.377 7.77,-4.304 2.174,-1.929 4.039,-4.282 5.592,-7.056 1.555,-2.776 3.004,-5.998 4.352,-9.666 h 1.708 v 24.412 h -84.37 v -1.975 h 17.247 V -40.228 H 147.353 V -11.3 h -1.709 c -2.385,-8.938 -6.164,-15.995 -11.343,-21.167 -5.18,-5.175 -12.328,-7.761 -21.442,-7.761 H 95.291 v 96.521 h 17.246 v 1.975 H 62.506 V 56.293 H 79.754 V -40.228 H 67.175 L 23.398,58.48 h -3.955 l -40.727,-98.734 -11.719,-0.019 v -1.931 H 0.404 v 1.931 H -16.879 L -0.823,-1.93 H 35.41 l 16.549,-38.337 -17.372,-0.006 v -1.931 h 191.74 V -11.3 h -1.709 c -0.311,-2.165 -1.037,-4.892 -2.175,-8.184 -1.142,-3.295 -2.901,-6.469 -5.283,-9.526 -2.384,-3.057 -5.466,-5.693 -9.245,-7.903 -3.783,-2.211 -8.521,-3.315 -14.217,-3.315 h -18.957 v 50.941 h 9.27 c 3.729,0 6.759,-0.588 9.089,-1.764 2.331,-1.176 4.196,-2.751 5.595,-4.727 1.397,-1.976 2.485,-4.233 3.262,-6.773 0.777,-2.54 1.527,-5.176 2.253,-7.903 h 1.709 v 43.887 h -1.709 c -1.141,-4.234 -2.306,-7.691 -3.496,-10.372 -1.192,-2.682 -2.642,-4.798 -4.351,-6.35 -1.709,-1.553 -3.755,-2.611 -6.137,-3.175 -2.385,-0.564 -5.283,-0.846 -8.702,-0.846 h -6.783 v 43.603 z" /></g><g
           transform="translate(178.2439,217.3428)"
           id="g34"><path
             id="path36"
             style="fill:#f9f8f1;fill-opacity:1;fill-rule:nonzero;stroke:none"
             d="M 0,0 V 29.209 H 5.213 V 27.072 H 2.139 V 2.137 H 5.213 V 0 Z" /></g><g
           transform="translate(193.8783,222.4488)"
           id="g38"><path
             id="path40"
             style="fill:#f9f8f1;fill-opacity:1;fill-rule:nonzero;stroke:none"
             d="M 0,0 V 18.997 H 2.136 L 9.313,3.865 16.45,18.997 h 2.165 V 0.013 h -2.23 V 13.839 L 9.934,0 H 8.68 L 2.227,13.839 V 0 Z" /></g><g
           transform="translate(224.6548,224.2954)"
           id="g42"><path
             id="path44"
             style="fill:#f9f8f1;fill-opacity:1;fill-rule:nonzero;stroke:none"
             d="M 0,0 C 1.414,-0.009 2.594,0.311 3.533,0.956 4.475,1.603 5.182,2.502 5.657,3.655 6.132,4.807 6.37,6.14 6.37,7.653 6.37,9.164 6.132,10.495 5.657,11.642 5.182,12.79 4.475,13.685 3.533,14.328 2.594,14.969 1.414,15.295 0,15.304 -1.417,15.312 -2.594,14.996 -3.53,14.353 -4.466,13.712 -5.173,12.812 -5.646,11.656 -6.121,10.5 -6.364,9.164 -6.373,7.653 -6.381,6.14 -6.15,4.811 -5.674,3.667 -5.199,2.525 -4.489,1.629 -3.544,0.983 -2.6,0.336 -1.417,0.009 0,0 m 0,-2.242 c -1.892,0 -3.499,0.417 -4.815,1.253 -1.32,0.836 -2.325,1.997 -3.018,3.483 -0.687,1.485 -1.034,3.206 -1.034,5.159 0,1.951 0.347,3.671 1.034,5.157 0.693,1.486 1.698,2.647 3.018,3.483 1.316,0.836 2.923,1.254 4.815,1.254 1.898,0 3.51,-0.418 4.827,-1.254 C 6.147,15.457 7.149,14.296 7.833,12.81 8.52,11.324 8.864,9.604 8.864,7.653 8.864,5.7 8.52,3.979 7.833,2.494 7.149,1.008 6.147,-0.153 4.827,-0.989 3.51,-1.825 1.898,-2.242 0,-2.242" /></g><g
           transform="translate(243.5588,222.0537)"
           id="g46"><path
             id="path48"
             style="fill:#f9f8f1;fill-opacity:1;fill-rule:nonzero;stroke:none"
             d="M 0,0 C -1.346,0 -2.557,0.228 -3.633,0.686 -4.712,1.142 -5.603,1.795 -6.301,2.644 -7,3.493 -7.452,4.498 -7.664,5.659 l 2.428,0.382 C -4.93,4.846 -4.292,3.911 -3.318,3.238 -2.345,2.565 -1.2,2.229 0.117,2.229 c 0.854,0 1.624,0.134 2.308,0.402 0.687,0.268 1.237,0.653 1.643,1.155 0.41,0.501 0.613,1.094 0.613,1.781 0,0.412 -0.075,0.773 -0.223,1.081 C 4.309,6.955 4.111,7.216 3.865,7.426 3.619,7.638 3.335,7.817 3.02,7.968 2.705,8.116 2.373,8.245 2.03,8.35 l -4.839,1.438 c -0.529,0.149 -1.039,0.345 -1.531,0.587 -0.495,0.242 -0.934,0.546 -1.32,0.911 -0.387,0.365 -0.693,0.806 -0.922,1.325 -0.229,0.518 -0.343,1.13 -0.343,1.834 0,1.116 0.292,2.076 0.876,2.876 0.584,0.8 1.38,1.41 2.382,1.828 1.002,0.416 2.13,0.625 3.389,0.625 C 0.999,19.766 2.139,19.54 3.146,19.096 4.154,18.651 4.99,18.015 5.654,17.189 6.316,16.362 6.762,15.373 6.991,14.22 L 4.498,13.785 c -0.132,0.766 -0.424,1.43 -0.876,1.993 -0.453,0.562 -1.02,0.996 -1.695,1.299 -0.679,0.304 -1.42,0.46 -2.23,0.468 -0.776,0.009 -1.475,-0.117 -2.099,-0.376 -0.624,-0.259 -1.122,-0.616 -1.489,-1.068 -0.372,-0.454 -0.555,-0.97 -0.555,-1.55 0,-0.59 0.166,-1.061 0.501,-1.412 0.335,-0.352 0.747,-0.631 1.234,-0.838 0.486,-0.207 0.965,-0.375 1.431,-0.507 L 2.333,10.752 C 2.748,10.637 3.227,10.478 3.765,10.276 4.309,10.073 4.833,9.79 5.342,9.425 5.852,9.06 6.273,8.576 6.611,7.975 6.943,7.372 7.109,6.613 7.109,5.699 7.109,4.784 6.925,3.971 6.565,3.258 6.198,2.545 5.689,1.947 5.039,1.463 4.389,0.981 3.633,0.616 2.768,0.369 1.91,0.123 0.985,0 0,0" /></g><g
           transform="translate(261.9073,222.0537)"
           id="g50"><path
             id="path52"
             style="fill:#f9f8f1;fill-opacity:1;fill-rule:nonzero;stroke:none"
             d="m 0,0 c -1.89,0 -3.493,0.417 -4.815,1.253 -1.317,0.836 -2.322,1.996 -3.012,3.482 -0.693,1.486 -1.037,3.207 -1.037,5.159 0,1.951 0.344,3.672 1.037,5.158 0.69,1.486 1.695,2.647 3.012,3.483 1.322,0.836 2.925,1.254 4.815,1.254 2.199,0 4.008,-0.56 5.428,-1.677 C 6.851,16.996 7.827,15.491 8.365,13.6 L 5.978,12.968 C 5.591,14.383 4.898,15.5 3.899,16.319 2.903,17.136 1.603,17.545 0,17.545 c -1.414,0 -2.594,-0.322 -3.533,-0.963 C -4.475,15.939 -5.182,15.043 -5.657,13.891 -6.132,12.739 -6.373,11.406 -6.384,9.894 -6.393,8.381 -6.161,7.05 -5.686,5.903 -5.211,4.755 -4.498,3.858 -3.547,3.212 -2.597,2.565 -1.414,2.242 0,2.242 c 1.603,0 2.903,0.411 3.899,1.234 0.999,0.821 1.692,1.936 2.079,3.344 L 8.365,6.187 C 7.827,4.296 6.851,2.791 5.428,1.675 4.008,0.558 2.199,0 0,0" /></g><g
           transform="translate(281.6443,224.2954)"
           id="g54"><path
             id="path56"
             style="fill:#f9f8f1;fill-opacity:1;fill-rule:nonzero;stroke:none"
             d="M 0,0 C 1.414,-0.009 2.594,0.311 3.536,0.956 4.478,1.603 5.185,2.502 5.66,3.655 6.135,4.807 6.373,6.14 6.373,7.653 6.373,9.164 6.135,10.495 5.66,11.642 5.185,12.79 4.478,13.685 3.536,14.328 2.594,14.969 1.414,15.295 0,15.304 -1.414,15.312 -2.594,14.996 -3.527,14.353 -4.466,13.712 -5.17,12.812 -5.646,11.656 -6.121,10.5 -6.361,9.164 -6.373,7.653 -6.379,6.14 -6.15,4.811 -5.674,3.667 -5.199,2.525 -4.489,1.629 -3.541,0.983 -2.597,0.336 -1.414,0.009 0,0 m 0,-2.242 c -1.89,0 -3.496,0.417 -4.815,1.253 -1.317,0.836 -2.325,1.997 -3.015,3.483 -0.69,1.485 -1.034,3.206 -1.034,5.159 0,1.951 0.344,3.671 1.034,5.157 0.69,1.486 1.698,2.647 3.015,3.483 1.319,0.836 2.925,1.254 4.815,1.254 1.901,0 3.51,-0.418 4.827,-1.254 C 6.15,15.457 7.152,14.296 7.836,12.81 8.523,11.324 8.864,9.604 8.864,7.653 8.864,5.7 8.523,3.979 7.836,2.494 7.152,1.008 6.15,-0.153 4.827,-0.989 3.51,-1.825 1.901,-2.242 0,-2.242" /></g><g
           transform="translate(297.0669,222.4488)"
           id="g58"><path
             id="path60"
             style="fill:#f9f8f1;fill-opacity:1;fill-rule:nonzero;stroke:none"
             d="m 0,0 -5.503,18.997 h 2.454 L 1.174,3.971 5.382,18.984 7.847,18.997 12.07,3.971 16.279,18.997 h 2.465 L 13.244,0 H 10.896 L 6.622,14.894 2.348,0 Z" /></g><g
           transform="translate(332.9996,224.6919)"
           id="g62"><path
             id="path64"
             style="fill:#f9f8f1;fill-opacity:1;fill-rule:nonzero;stroke:none"
             d="m 0,0 h 3.444 c 0.335,0 0.707,0.01 1.122,0.033 0.413,0.021 0.773,0.059 1.08,0.112 1.039,0.193 1.878,0.628 2.519,1.305 0.644,0.679 1.117,1.522 1.414,2.534 0.298,1.01 0.447,2.101 0.447,3.272 0,1.195 -0.149,2.298 -0.452,3.304 -0.304,1.008 -0.779,1.847 -1.426,2.519 -0.647,0.673 -1.48,1.103 -2.502,1.287 -0.307,0.062 -0.67,0.102 -1.094,0.119 -0.424,0.017 -0.79,0.026 -1.108,0.026 H 0 Z m -2.413,-2.243 v 18.997 h 5.857 c 0.192,0 0.533,-0.004 1.016,-0.013 0.484,-0.009 0.945,-0.044 1.386,-0.106 1.466,-0.193 2.697,-0.727 3.688,-1.603 0.99,-0.875 1.734,-1.987 2.233,-3.337 0.504,-1.35 0.755,-2.83 0.755,-4.439 0,-1.619 -0.251,-3.103 -0.755,-4.453 C 11.268,1.453 10.524,0.342 9.534,-0.528 8.543,-1.399 7.312,-1.931 5.846,-2.124 5.405,-2.186 4.941,-2.222 4.455,-2.23 3.965,-2.239 3.63,-2.243 3.444,-2.243 Z" /></g><g
           transform="translate(356.7075,222.0537)"
           id="g66"><path
             id="path68"
             style="fill:#f9f8f1;fill-opacity:1;fill-rule:nonzero;stroke:none"
             d="M 0,0 C -1.469,0 -2.766,0.302 -3.891,0.909 -5.019,1.516 -5.9,2.368 -6.536,3.463 -7.174,4.558 -7.492,5.843 -7.492,7.321 v 12.058 l 2.373,0.013 V 7.52 c 0,-0.898 0.152,-1.678 0.455,-2.342 C -4.36,4.513 -3.959,3.961 -3.456,3.521 -2.955,3.082 -2.402,2.754 -1.801,2.539 -1.2,2.323 -0.598,2.216 0,2.216 c 0.607,0 1.211,0.11 1.812,0.329 C 2.416,2.766 2.966,3.093 3.461,3.529 3.959,3.964 4.36,4.515 4.664,5.183 4.967,5.852 5.119,6.631 5.119,7.52 V 19.392 H 7.492 V 7.321 C 7.492,5.852 7.174,4.568 6.536,3.468 5.901,2.369 5.019,1.516 3.891,0.909 2.766,0.302 1.469,0 0,0" /></g><g
           transform="translate(370.9277,224.6919)"
           id="g70"><path
             id="path72"
             style="fill:#f9f8f1;fill-opacity:1;fill-rule:nonzero;stroke:none"
             d="M 0,0 H 5.239 C 5.943,0 6.573,0.129 7.126,0.389 7.678,0.648 8.116,1.015 8.44,1.49 8.761,1.965 8.921,2.537 8.921,3.205 8.921,3.848 8.775,4.423 8.486,4.934 8.194,5.444 7.793,5.85 7.278,6.154 6.762,6.457 6.172,6.609 5.503,6.609 H 0 Z m 0,8.825 h 5.002 c 0.552,0 1.059,0.122 1.517,0.364 0.455,0.241 0.822,0.579 1.088,1.014 0.266,0.436 0.403,0.952 0.403,1.551 0,0.819 -0.28,1.486 -0.838,2.005 -0.559,0.518 -1.283,0.779 -2.17,0.779 H 0 Z M -2.373,-2.243 v 18.997 h 7.4 c 1.134,0 2.105,-0.233 2.909,-0.699 0.807,-0.466 1.42,-1.08 1.849,-1.841 0.424,-0.761 0.639,-1.581 0.639,-2.46 0,-1.038 -0.266,-1.941 -0.793,-2.711 C 9.104,8.274 8.391,7.744 7.495,7.454 L 7.467,8.099 C 8.692,7.774 9.642,7.176 10.318,6.306 10.994,5.435 11.334,4.397 11.334,3.192 11.334,2.084 11.108,1.125 10.656,0.316 10.203,-0.492 9.551,-1.122 8.703,-1.57 7.853,-2.018 6.848,-2.243 5.686,-2.243 Z" /></g><path
           id="path74"
           style="fill:#f9f8f1;fill-opacity:1;fill-rule:nonzero;stroke:none"
           d="m 387.286,229.098 h 9.866 v -2.203 h -9.866 z m -3.06,-6.649 6.359,18.997 h 3.269 l 6.361,-18.997 h -2.442 l -5.949,17.625 h 0.739 l -5.895,-17.625 z" /><path
           id="path76"
           style="fill:#f9f8f1;fill-opacity:1;fill-rule:nonzero;stroke:none"
           d="m 403.514,241.446 h 2.348 v -18.997 h -2.348 z" /><g
           transform="translate(421.7561,217.3428)"
           id="g78"><path
             id="path80"
             style="fill:#f9f8f1;fill-opacity:1;fill-rule:nonzero;stroke:none"
             d="m 0,0 h -5.211 v 2.137 h 3.075 v 24.935 h -3.075 v 2.137 H 0 Z" /></g></g></g></g></svg>